<?xml version="1.0" encoding="utf-8"?>
<!-- Generator: Adobe Illustrator 24.0.2, SVG Export Plug-In . SVG Version: 6.00 Build 0)  -->
<svg version="1.1" id="Layer_1" xmlns="http://www.w3.org/2000/svg" xmlns:xlink="http://www.w3.org/1999/xlink" x="0px" y="0px"
	 viewBox="0 0 512 512" style="enable-background:new 0 0 512 512;" xml:space="preserve">
<style type="text/css">
	.st0{fill:#FFFFFF;}
</style>
<path class="st0" d="M466.2,410.4l-20.7-7.2c11.6-9.2,19-23.3,19-39.2v-15.1c0-27.6-22.4-50-50-50s-50,22.4-50,50v15.1
	c0,15.9,7.4,30,19,39.2l-20.7,7.2c-13.3,4.6-24.4,13.1-32.4,23.8h-55.8v-22c0-29-18.4-54.9-45.8-64.4l-20.7-7.2
	c11.6-9.2,19-23.3,19-39.2v-15.1c0-27.6-22.4-50-50-50s-50,22.4-50,50v15.1c0,15.9,7.4,30,19,39.2l-20.7,7.2
	c-27.4,9.5-45.8,35.4-45.8,64.4v22H7.6c-4.2,0-7.6,3.4-7.6,7.6v62.6c0,4.2,3.4,7.6,7.6,7.6h315.1c0.3,0,0.7,0,1-0.1
	c0.3,0,0.7,0.1,1,0.1h179.8c4.2,0,7.6-3.4,7.6-7.6v-29.6C512,445.8,493.6,419.9,466.2,410.4z M379.7,348.9
	c0-19.2,15.6-34.8,34.8-34.8s34.8,15.6,34.8,34.8v15.1c0,19.2-15.6,34.8-34.8,34.8s-34.8-15.6-34.8-34.8V348.9z M142.4,286.3
	c0-19.2,15.6-34.8,34.8-34.8s34.8,15.6,34.8,34.8v15.1c0,19.2-15.6,34.8-34.8,34.8s-34.8-15.6-34.8-34.8V286.3z M193.1,351.4
	l7.4,2.6l-23.3,40.3L154,354l7.4-2.6H193.1z M94.9,412.2c0-22.6,14.3-42.7,35.6-50.1l8.9-3.1l31.3,54.2c1.4,2.3,3.9,3.8,6.6,3.8
	s5.2-1.4,6.6-3.8L215,359l8.9,3.1c21.3,7.4,35.6,27.5,35.6,50.1v22H94.9V412.2z M15.1,449.4H322c-3.2,7.9-4.9,16.5-4.9,25.4v22H15.1
	V449.4z M496.9,496.9H332.2v-22c0-22.6,14.3-42.7,35.6-50.1l30.8-10.7h31.8l30.8,10.7c21.3,7.4,35.6,27.5,35.6,50.1V496.9z"/>
<path class="st0" d="M464,54.5h-76.9c-4.2,0-7.6,3.4-7.6,7.6c0,4.2,3.4,7.6,7.6,7.6H464c18.1,0,32.8,14.7,32.8,32.8v105
	c0,18.1-14.7,32.8-32.8,32.8H360c-4.2,0-7.6,3.4-7.6,7.6v32.2l-37.6-37.6c-1.4-1.4-3.3-2.2-5.4-2.2h-61.6
	c-18.1,0-32.8-14.7-32.8-32.8v-105c0-18.1,14.7-32.8,32.8-32.8h103.8c4.2,0,7.6-3.4,7.6-7.6s-3.4-7.6-7.6-7.6H312V48
	c0-26.4-21.5-48-48-48H48C21.5,0,0,21.5,0,48v16.7c0,4.2,3.4,7.6,7.6,7.6s7.6-3.4,7.6-7.6V48c0-18.1,14.7-32.8,32.8-32.8h216.1
	c18.1,0,32.8,14.7,32.8,32.8v6.6h-49c-26.4,0-48,21.5-48,48v83.3h-79.3c-4.2,0-7.6,3.4-7.6,7.6v32.2L75.5,188
	c-1.4-1.4-3.3-2.2-5.4-2.2H48c-18.1,0-32.8-14.7-32.8-32.8V99.9c0-4.2-3.4-7.6-7.6-7.6S0,95.8,0,99.9V153c0,26.5,21.5,48,48,48H67
	l48.3,48.3c1.4,1.4,3.4,2.2,5.4,2.2c1,0,2-0.2,2.9-0.6c2.8-1.2,4.7-3.9,4.7-7V201H200v6.6c0,26.4,21.5,48,48,48h58.5l48.3,48.3
	c1.4,1.4,3.4,2.2,5.4,2.2c1,0,2-0.2,2.9-0.6c2.8-1.2,4.7-3.9,4.7-7v-42.9H464c26.4,0,48-21.5,48-48v-105
	C512,76.1,490.5,54.5,464,54.5z"/>
</svg>
